<?xml version="1.0" encoding="utf-8"?>
<!-- Generator: Adobe Illustrator 22.1.0, SVG Export Plug-In . SVG Version: 6.00 Build 0)  -->
<svg version="1.1" id="Layer_1" xmlns="http://www.w3.org/2000/svg" xmlns:xlink="http://www.w3.org/1999/xlink" x="0px" y="0px"
	 viewBox="0 0 345.8 108.6" style="enable-background:new 0 0 345.8 108.6;" xml:space="preserve">
<style type="text/css">
	.st0{fill:#FFFFFF;}
	.st1{fill:#FFFFFF;stroke:#FFFFFF;stroke-width:2.16;}
	.st2{clip-path:url(#SVGID_2_);}
	.st3{clip-path:url(#SVGID_4_);}
	.st4{fill:none;stroke:#FFFFFF;stroke-width:2.16;}
</style>
<g id="surface1">
	<path class="st0" d="M70.5,45.3c0,0-14.3-2.3-28.2-1.1c-14,1.1-29.1,4-35.6-7.7C0.1,24.8,10.3,11.4,20,11.1
		c9.7-0.3,15.4,0.9,20.2,4c0,0-2.6-12.3,6.3-13.7S80.2,6,70.5,45.3z"/>
	<path class="st0" d="M74.2,51c0,0-23.7-4.6-36.5-1.7S12.6,63,20.3,80.4s24.8,18.2,31.4,15.1c6.6-3.1,12.8-9.4,17.7-20.8
		c0,0,2-2.3,2.8,0.6c0.9,2.8-1.7,9.7-1.7,14c0,4.3-1.1,13.7,11.7,16.5c12.8,2.9,23.1-10,25.9-21.9s-0.9-23.7-13.7-28.2
		c0,0-4.3-2-2.8-2.9s10.5,0.3,13.1-8.3c2.6-8.6-8.8-19.7-13.7-22.2c-4.8-2.6-12.8,0-13.7,8.6C76.5,39.3,75.3,49,74.2,51z"/>
	<path class="st1" d="M137.7,34.1v-4.2h20.7v-6.5c0-6.9-2.7-12.2-12.2-12.2s-12.5,5.3-12.5,12.2v10.5c0,7.3,3,12.2,12.4,12.2
		c4.1,0,8.4-0.8,11.5-1.9L157,41c-3.3,0.9-7.1,1.6-10.6,1.6C139.8,42.6,137.7,40.1,137.7,34.1z M137.7,23.3c0-5.6,2.3-8.6,8.5-8.6
		c6.2,0,8.2,3,8.2,8.6v3h-16.8V23.3z M168.2,12v26.6c0,4.6,1.9,7.6,7.1,7.6c4.1,0,10-2,13.6-3.7l0.3,3h3.5V12h-4v26.6
		c-4.2,2.2-10.1,3.8-12.8,3.8c-2.3,0-3.6-0.9-3.6-3.4V12H168.2z M218.6,11.3c-3.2,1.2-6.7,3.4-10.3,5.8l-0.2-5.1h-3.6v33.4h4v-24
		c3.2-2.1,7.1-4.7,10.6-6.2L218.6,11.3z M250.4,33.9V23.4c0-6.9-3.6-12.2-13-12.2c-9.4,0-13,5.3-13,12.2v10.5
		c0,6.9,3.6,12.2,13,12.2C246.8,46.1,250.4,40.8,250.4,33.9z M246.4,34.1c0,5.6-2.8,8.4-9,8.4c-6.3,0-9-2.8-9-8.4V23.3
		c0-5.6,2.8-8.4,9-8.4c6.2,0,9,2.8,9,8.4V34.1z"/>
	<g>
		<defs>
			<rect id="SVGID_1_" x="133" y="52" width="212.8" height="48"/>
		</defs>
		<clipPath id="SVGID_2_">
			<use xlink:href="#SVGID_1_"  style="overflow:visible;"/>
		</clipPath>
		<g class="st2">
			<path class="st0" d="M178.6,98.6V73c0-4.4-1.9-7.3-7.1-7.3c-4.1,0-10.2,1.9-14,3.6c-0.9-2.3-2.9-3.6-6.5-3.6
				c-4.1,0-10,1.9-13.6,3.6l-0.3-2.9h-3.5v32.2h4V73c4.2-2.1,10.1-3.7,12.8-3.7c2.3,0,3.6,0.9,3.6,3.2v26.1h4V73
				c4.2-2.1,9.7-3.7,12.8-3.7c2.3,0,3.6,0.9,3.6,3.2v26.1H178.6z M194.2,66.4h-4v32.2h4V66.4z M194.2,53.2h-4v7.1h4V53.2z
				 M210.2,98.6V52.7l-4,0.5v45.4H210.2z M246.6,98.6V73c0-4.4-1.9-7.3-7.1-7.3c-4,0-9.8,1.9-13.4,3.5V52.7l-4,0.5v45.4h4V73
				c4.2-2.1,10.1-3.7,12.8-3.7c2.3,0,3.6,0.9,3.6,3.2v26.1H246.6z M282.4,87.5V77.4c0-6.6-3.6-11.7-13-11.7s-13,5.1-13,11.7v10.1
				c0,6.6,3.6,11.7,13,11.7S282.4,94.2,282.4,87.5z M278.4,87.7c0,5.4-2.7,8.1-9,8.1c-6.2,0-9-2.7-9-8.1V77.3c0-5.4,2.8-8.1,9-8.1
				c6.3,0,9,2.7,9,8.1V87.7z M270,61c1.8,0.8,2.7,1.1,3.9,1.1c2.2,0,4.1-1.4,5.3-3.2l-2-1.7c-1.1,1.2-2.1,1.7-3.3,1.7
				c-1.1,0-2.1-0.4-3.9-1.2c-1.5-0.7-2.4-1.1-3.7-1.1c-2.2,0-4.4,1.5-5.6,3.2l1.8,1.9c1.2-1.1,2.2-1.9,3.7-1.9
				C267.5,59.8,268.5,60.3,270,61z M294.9,87.7v-4h20.7v-6.2c0-6.6-2.7-11.7-12.2-11.7c-9.4,0-12.5,5.1-12.5,11.7v10.1
				c0,7,3,11.7,12.4,11.7c4,0,8.4-0.7,11.5-1.8l-0.7-3.1c-3.3,0.9-7.1,1.5-10.6,1.5C297,95.9,294.9,93.4,294.9,87.7z M294.9,77.3
				c0-5.4,2.3-8.3,8.5-8.3c6.2,0,8.2,2.8,8.2,8.3v2.9h-16.8V77.3z M345.8,90.5c0-6-0.6-7.5-10.4-9.9c-6.2-1.5-6.5-2-6.5-6.4
				c0-3.5,0.8-5,6.7-5c2.8,0,6.7,0.4,9.3,0.9l0.4-3.2c-2.6-0.7-6.4-1.1-9.5-1.1c-8.2,0-10.9,2.9-10.9,8.3c0,5.9,0.7,7.9,9.1,9.8
				c7.6,1.7,7.8,2.2,7.8,6.8c0,4.1-1.2,5.2-7.4,5.2c-2.5,0-6-0.5-8.9-1.3l-0.7,3.1c2.5,1,6.5,1.7,9.8,1.7
				C343.6,99.3,345.8,96.3,345.8,90.5z"/>
		</g>
	</g>
	<g>
		<defs>
			<rect id="SVGID_3_" x="132" y="51" width="213.8" height="50"/>
		</defs>
		<clipPath id="SVGID_4_">
			<use xlink:href="#SVGID_3_"  style="overflow:visible;"/>
		</clipPath>
		<g class="st3">
			<path class="st4" d="M178.6,98.6V73c0-4.4-1.9-7.3-7.1-7.3c-4.1,0-10.2,1.9-14,3.6c-0.9-2.3-2.9-3.6-6.5-3.6
				c-4.1,0-10,1.9-13.6,3.6l-0.3-2.9h-3.5v32.2h4V73c4.2-2.1,10.1-3.7,12.8-3.7c2.3,0,3.6,0.9,3.6,3.2v26.1h4V73
				c4.2-2.1,9.7-3.7,12.8-3.7c2.3,0,3.6,0.9,3.6,3.2v26.1H178.6z M194.2,66.4h-4v32.2h4V66.4z M194.2,53.2h-4v7.1h4V53.2z
				 M210.2,98.6V52.7l-4,0.5v45.4H210.2z M246.6,98.6V73c0-4.4-1.9-7.3-7.1-7.3c-4,0-9.8,1.9-13.4,3.5V52.7l-4,0.5v45.4h4V73
				c4.2-2.1,10.1-3.7,12.8-3.7c2.3,0,3.6,0.9,3.6,3.2v26.1H246.6z M282.4,87.5V77.4c0-6.6-3.6-11.7-13-11.7s-13,5.1-13,11.7v10.1
				c0,6.6,3.6,11.7,13,11.7S282.4,94.2,282.4,87.5z M278.4,87.7c0,5.4-2.7,8.1-9,8.1c-6.2,0-9-2.7-9-8.1V77.3c0-5.4,2.8-8.1,9-8.1
				c6.3,0,9,2.7,9,8.1V87.7z M270,61c1.8,0.8,2.7,1.1,3.9,1.1c2.2,0,4.1-1.4,5.3-3.2l-2-1.7c-1.1,1.2-2.1,1.7-3.3,1.7
				c-1.1,0-2.1-0.4-3.9-1.2c-1.5-0.7-2.4-1.1-3.7-1.1c-2.2,0-4.4,1.5-5.6,3.2l1.8,1.9c1.2-1.1,2.2-1.9,3.7-1.9
				C267.5,59.8,268.5,60.3,270,61z M294.9,87.7v-4h20.7v-6.2c0-6.6-2.7-11.7-12.2-11.7c-9.4,0-12.5,5.1-12.5,11.7v10.1
				c0,7,3,11.7,12.4,11.7c4,0,8.4-0.7,11.5-1.8l-0.7-3.1c-3.3,0.9-7.1,1.5-10.6,1.5C297,95.9,294.9,93.4,294.9,87.7z M294.9,77.3
				c0-5.4,2.3-8.3,8.5-8.3c6.2,0,8.2,2.8,8.2,8.3v2.9h-16.8V77.3z M345.8,90.5c0-6-0.6-7.5-10.4-9.9c-6.2-1.5-6.5-2-6.5-6.4
				c0-3.5,0.8-5,6.7-5c2.8,0,6.7,0.4,9.3,0.9l0.4-3.2c-2.6-0.7-6.4-1.1-9.5-1.1c-8.2,0-10.9,2.9-10.9,8.3c0,5.9,0.7,7.9,9.1,9.8
				c7.6,1.7,7.8,2.2,7.8,6.8c0,4.1-1.2,5.2-7.4,5.2c-2.5,0-6-0.5-8.9-1.3l-0.7,3.1c2.5,1,6.5,1.7,9.8,1.7
				C343.6,99.3,345.8,96.3,345.8,90.5z"/>
		</g>
	</g>
</g>
</svg>
