<?xml version="1.0" encoding="utf-8"?>
<!-- Generator: Adobe Illustrator 22.1.0, SVG Export Plug-In . SVG Version: 6.00 Build 0)  -->
<svg version="1.1" id="Layer_1" xmlns="http://www.w3.org/2000/svg" xmlns:xlink="http://www.w3.org/1999/xlink" x="0px" y="0px"
	 viewBox="0 0 595.3 841.9" style="enable-background:new 0 0 595.3 841.9;" xml:space="preserve">
<style type="text/css">
	.st0{fill-rule:evenodd;clip-rule:evenodd;fill:#FFFFFF;}
</style>
<g id="Logo">
	<g>
		<path class="st0" d="M186.6,288.5v-29l-139.6,0l75.3,130.3v-66.1L102,288.5L186.6,288.5z M210.8,561.6l42.4,75.1V507l-42.4-42.4
			V561.6z M253.3,359l15.9-22.7h55.5l15.6,23.4v45.7l42.4-42.4V205.5h-0.1l-42.3,42.3v69.5l-15.7-23.4h-55.8l-15.4,22.6v-68.8
			l-42.3-42.3h-0.1V363l42.4,42.4V359z M297.1,469.6L297.1,469.6L145.7,318.1l-0.4-0.4v131.2l42.5,73.9V420.1l109.2,108.8
			l109.2-108.6v102.6l42.5-73.8v-131l-0.4,0.4L297.1,469.6z M471.9,390.7l75.9-131.2l-141.4,0v29l86.4,0l-20.8,36V390.7z
			 M340.2,636.7l42.4-75.1v-97L340.2,507V636.7z"/>
	</g>
</g>
</svg>
